<?xml version="1.0" standalone="no"?>
<!DOCTYPE svg PUBLIC "-//W3C//DTD SVG 20010904//EN"
 "http://www.w3.org/TR/2001/REC-SVG-20010904/DTD/svg10.dtd">
<svg version="1.0" xmlns="http://www.w3.org/2000/svg"
 width="1587.000000pt" height="1587.000000pt" viewBox="0 0 1587.000000 1587.000000"
 preserveAspectRatio="xMidYMid meet">
<metadata>
Created by potrace 1.14, written by Peter Selinger 2001-2017
</metadata>
<g transform="translate(0.000000,1587.000000) scale(0.100000,-0.100000)"
fill="#000000" stroke="none">
<path d="M291 10688 c0 -942 4 -1731 7 -1753 l7 -40 102 -5 c56 -3 105 -9 110
-13 9 -10 11 -2407 2 -2407 -4 0 -3 -19 1 -42 7 -37 7 -334 0 -348 -1 -3 -1
-9 0 -15 1 -5 1 -82 0 -170 0 -88 -1 -167 -1 -175 1 -381 0 -484 -5 -491 -3
-5 8 -11 23 -14 62 -14 71 -21 78 -72 19 -140 23 -253 24 -738 2 -572 5 -614
55 -713 43 -85 80 -118 190 -172 96 -47 107 -50 181 -50 l79 0 155 94 156 94
4865 3 c2676 2 5374 0 5995 -4 622 -4 1341 -7 1598 -8 l468 0 67 -43 c185
-118 188 -119 282 -113 144 8 244 60 330 172 22 29 52 80 65 114 l25 62 0 557
c0 502 7 721 25 804 6 25 11 28 46 28 32 0 41 4 48 22 5 13 9 804 9 1758 0
954 4 1765 7 1803 l7 67 83 0 83 0 6 83 c4 45 5 836 3 1757 l-3 1675 -7587 3
-7587 2 1 -1712z"/>
</g>
</svg>
